<?xml version="1.0" encoding="utf-8"?>
<svg version="1.1" xmlns:xlink="http://www.w3.org/1999/xlink" width="12px" height="12px" viewBox="230 331.5  12 12" xmlns="http://www.w3.org/2000/svg">
  <path d="M 236 331.5  C 239.36 331.5  242 334.14  242 337.5  C 242 340.86  239.36 343.5  236 343.5  C 232.64 343.5  230 340.86  230 337.5  C 230 334.14  232.64 331.5  236 331.5  Z " fill-rule="nonzero" fill="#ffffff" stroke="none" />
  <path d="M 236 332  C 239.08 332  241.5 334.42  241.5 337.5  C 241.5 340.58  239.08 343  236 343  C 232.92 343  230.5 340.58  230.5 337.5  C 230.5 334.42  232.92 332  236 332  Z " stroke-width="1" stroke="#797979" fill="none" />
  <path d="M 236 340.5  C 234.32 340.5  233 339.18  233 337.5  C 233 335.82  234.32 334.5  236 334.5  C 237.68 334.5  239 335.82  239 337.5  C 239 339.18  237.68 340.5  236 340.5  " fill-rule="nonzero" fill="#797979" stroke="none" />
</svg>