<?xml version="1.0" encoding="utf-8"?>
<svg version="1.1" xmlns:xlink="http://www.w3.org/1999/xlink" width="12px" height="12px" viewBox="338 331.5  12 12" xmlns="http://www.w3.org/2000/svg">
  <path d="M 344 331.5  C 347.36 331.5  350 334.14  350 337.5  C 350 340.86  347.36 343.5  344 343.5  C 340.64 343.5  338 340.86  338 337.5  C 338 334.14  340.64 331.5  344 331.5  Z " fill-rule="nonzero" fill="#ffffff" stroke="none" />
  <path d="M 344 332  C 347.08 332  349.5 334.42  349.5 337.5  C 349.5 340.58  347.08 343  344 343  C 340.92 343  338.5 340.58  338.5 337.5  C 338.5 334.42  340.92 332  344 332  Z " stroke-width="1" stroke="#797979" fill="none" />
  <path d="M 344 340.5  C 342.32 340.5  341 339.18  341 337.5  C 341 335.82  342.32 334.5  344 334.5  C 345.68 334.5  347 335.82  347 337.5  C 347 339.18  345.68 340.5  344 340.5  " fill-rule="nonzero" fill="#797979" stroke="none" />
</svg>