<?xml version="1.0" encoding="utf-8"?>
<svg version="1.1" xmlns:xlink="http://www.w3.org/1999/xlink" width="12px" height="12px" viewBox="493 399.5  12 12" xmlns="http://www.w3.org/2000/svg">
  <path d="M 499 399.5  C 502.36 399.5  505 402.14  505 405.5  C 505 408.86  502.36 411.5  499 411.5  C 495.64 411.5  493 408.86  493 405.5  C 493 402.14  495.64 399.5  499 399.5  Z " fill-rule="nonzero" fill="#ffffff" stroke="none" />
  <path d="M 499 400  C 502.08 400  504.5 402.42  504.5 405.5  C 504.5 408.58  502.08 411  499 411  C 495.92 411  493.5 408.58  493.5 405.5  C 493.5 402.42  495.92 400  499 400  Z " stroke-width="1" stroke="#797979" fill="none" />
  <path d="M 499 408.5  C 497.32 408.5  496 407.18  496 405.5  C 496 403.82  497.32 402.5  499 402.5  C 500.68 402.5  502 403.82  502 405.5  C 502 407.18  500.68 408.5  499 408.5  " fill-rule="nonzero" fill="#797979" stroke="none" />
</svg>