<?xml version="1.0" encoding="utf-8"?>
<svg version="1.1" xmlns:xlink="http://www.w3.org/1999/xlink" width="198px" height="170px" xmlns="http://www.w3.org/2000/svg">
  <g transform="matrix(1 0 0 1 -72 -190 )">
    <path d="M 72 190  L 270 190  L 270 360  L 72 360  L 72 190  " fill-rule="nonzero" fill="#cccccc" stroke="none" />
    <path d="M 84 202  L 258 202  L 258 348  L 84 348  L 84 202  " fill-rule="nonzero" fill="#ffffff" stroke="none" />
    <path d="M 187.71 241  C 180.57 241  174.96 235.39  174.96 228.25  C 174.96 221.11  180.57 215.5  187.71 215.5  C 194.85 215.5  200.46 221.11  200.46 228.25  C 200.46 235.39  194.85 241  187.71 241  " fill-rule="nonzero" fill="#cccccc" stroke="none" />
    <path d="M 89 344  L 89 268.65  L 130.25 234.4  L 188 273.424242424242  L 221 254.95  L 254 273.424242424242  L 254 344  L 89 344  " fill-rule="nonzero" fill="#169bd5" stroke="none" />
  </g>
</svg>